<svg width="282" height="206" viewBox="0 0 282 206" fill="none" xmlns="http://www.w3.org/2000/svg">
<path d="M232.364 0H55.7924C47.6659 0 41.0781 6.58781 41.0781 14.7143V191.286C41.0781 199.412 47.6659 206 55.7924 206H232.364C240.49 206 247.078 199.412 247.078 191.286V14.7143C247.078 6.58781 240.49 0 232.364 0Z" fill="#FFEFC2" style="fill:#FFEFC2;fill:color(display-p3 1.0000 0.9374 0.7620);fill-opacity:1;"/>
<g filter="url(#filter0_d_1157_5142)">
<path d="M10.1784 14.2578H208.821C210.773 14.2578 212.644 15.0329 214.024 16.4127C215.403 17.7924 216.178 19.6637 216.178 21.615V58.4007C216.178 60.3519 215.403 62.2232 214.024 63.603C212.644 64.9827 210.773 65.7578 208.821 65.7578H10.1784C8.2272 65.7578 6.35588 64.9827 4.97615 63.603C3.59641 62.2232 2.82129 60.3519 2.82129 58.4007L2.82129 21.615C2.82129 19.6637 3.59641 17.7924 4.97615 16.4127C6.35588 15.0329 8.2272 14.2578 10.1784 14.2578V14.2578Z" fill="white" style="fill:white;fill-opacity:1;"/>
</g>
<path d="M104.35 26.0293H66.0925C63.6546 26.0293 61.6782 28.0056 61.6782 30.4436C61.6782 32.8815 63.6546 34.8579 66.0925 34.8579H104.35C106.788 34.8579 108.764 32.8815 108.764 30.4436C108.764 28.0056 106.788 26.0293 104.35 26.0293Z" fill="#FFE59E" style="fill:#FFE59E;fill:color(display-p3 1.0000 0.8980 0.6196);fill-opacity:1;"/>
<path d="M130.835 45.1582H66.0925C63.6546 45.1582 61.6782 47.1345 61.6782 49.5725C61.6782 52.0104 63.6546 53.9868 66.0925 53.9868H130.835C133.273 53.9868 135.25 52.0104 135.25 49.5725C135.25 47.1345 133.273 45.1582 130.835 45.1582Z" fill="#FFEFC2" style="fill:#FFEFC2;fill:color(display-p3 1.0000 0.9374 0.7620);fill-opacity:1;"/>
<path d="M42.5496 18.6709H14.5925C10.5293 18.6709 7.23535 21.9648 7.23535 26.028V53.9852C7.23535 58.0484 10.5293 61.3423 14.5925 61.3423H42.5496C46.6129 61.3423 49.9068 58.0484 49.9068 53.9852V26.028C49.9068 21.9648 46.6129 18.6709 42.5496 18.6709Z" fill="#F9BD15" style="fill:#F9BD15;fill:color(display-p3 0.9765 0.7412 0.0824);fill-opacity:1;"/>
<path d="M33.8019 47.002L28.5503 41.7504L23.2987 47.002L21.5482 45.2514L26.7998 39.9998L21.5482 34.7482L23.2987 32.9977L28.5503 38.2493L33.8019 32.9977L35.5524 34.7482L30.3008 39.9998L35.5524 45.2514L33.8019 47.002Z" fill="white" style="fill:white;fill-opacity:1;"/>
<path d="M43.72 19.1289H15.7629C11.6997 19.1289 8.40576 22.4228 8.40576 26.486V54.4432C8.40576 58.5064 11.6997 61.8003 15.7629 61.8003H43.72C47.7833 61.8003 51.0772 58.5064 51.0772 54.4432V26.486C51.0772 22.4228 47.7833 19.1289 43.72 19.1289Z" fill="#F9BD15" style="fill:#F9BD15;fill:color(display-p3 0.9765 0.7412 0.0824);fill-opacity:1;"/>
<path d="M32.8024 48.002L27.5508 42.7504L22.2992 48.002L20.5486 46.2514L25.8002 40.9998L20.5486 35.7482L22.2992 33.9977L27.5508 39.2493L32.8024 33.9977L34.5529 35.7482L29.3013 40.9998L34.5529 46.2514L32.8024 48.002Z" fill="white" style="fill:white;fill-opacity:1;"/>
<g filter="url(#filter1_d_1157_5142)">
<path d="M73.1784 78.2578H271.821C273.773 78.2578 275.644 79.0329 277.024 80.4127C278.403 81.7924 279.178 83.6637 279.178 85.615V122.401C279.178 124.352 278.403 126.223 277.024 127.603C275.644 128.983 273.773 129.758 271.821 129.758H73.1784C71.2272 129.758 69.3559 128.983 67.9761 127.603C66.5964 126.223 65.8213 124.352 65.8213 122.401V85.615C65.8213 83.6637 66.5964 81.7924 67.9761 80.4127C69.3559 79.0329 71.2272 78.2578 73.1784 78.2578V78.2578Z" fill="white" style="fill:white;fill-opacity:1;"/>
</g>
<path d="M167.35 90.0293H129.093C126.655 90.0293 124.678 92.0056 124.678 94.4436C124.678 96.8815 126.655 98.8579 129.093 98.8579H167.35C169.788 98.8579 171.764 96.8815 171.764 94.4436C171.764 92.0056 169.788 90.0293 167.35 90.0293Z" fill="#FFE59E" style="fill:#FFE59E;fill:color(display-p3 1.0000 0.8980 0.6196);fill-opacity:1;"/>
<path d="M193.835 109.158H129.093C126.655 109.158 124.678 111.135 124.678 113.572C124.678 116.01 126.655 117.987 129.093 117.987H193.835C196.273 117.987 198.25 116.01 198.25 113.572C198.25 111.135 196.273 109.158 193.835 109.158Z" fill="#FFEFC2" style="fill:#FFEFC2;fill:color(display-p3 1.0000 0.9374 0.7620);fill-opacity:1;"/>
<path d="M105.55 82.6709H77.5925C73.5293 82.6709 70.2354 85.9648 70.2354 90.028V117.985C70.2354 122.048 73.5293 125.342 77.5925 125.342H105.55C109.613 125.342 112.907 122.048 112.907 117.985V90.028C112.907 85.9648 109.613 82.6709 105.55 82.6709Z" fill="#F9BD15" style="fill:#F9BD15;fill:color(display-p3 0.9765 0.7412 0.0824);fill-opacity:1;"/>
<path d="M96.8019 111.002L91.5503 105.75L86.2987 111.002L84.5482 109.251L89.7998 104L84.5482 98.7482L86.2987 96.9977L91.5503 102.249L96.8019 96.9977L98.5524 98.7482L93.3008 104L98.5524 109.251L96.8019 111.002Z" fill="white" style="fill:white;fill-opacity:1;"/>
<g filter="url(#filter2_d_1157_5142)">
<path d="M10.1784 141.258H208.821C210.773 141.258 212.644 142.033 214.024 143.413C215.403 144.792 216.178 146.664 216.178 148.615V185.401C216.178 187.352 215.403 189.223 214.024 190.603C212.644 191.983 210.773 192.758 208.821 192.758H10.1784C8.2272 192.758 6.35588 191.983 4.97615 190.603C3.59641 189.223 2.82129 187.352 2.82129 185.401L2.82129 148.615C2.82129 146.664 3.59641 144.792 4.97615 143.413C6.35588 142.033 8.2272 141.258 10.1784 141.258V141.258Z" fill="white" style="fill:white;fill-opacity:1;"/>
</g>
<path d="M104.35 153.029H66.0925C63.6546 153.029 61.6782 155.006 61.6782 157.444C61.6782 159.882 63.6546 161.858 66.0925 161.858H104.35C106.788 161.858 108.764 159.882 108.764 157.444C108.764 155.006 106.788 153.029 104.35 153.029Z" fill="#FFE59E" style="fill:#FFE59E;fill:color(display-p3 1.0000 0.8980 0.6196);fill-opacity:1;"/>
<path d="M130.835 172.158H66.0925C63.6546 172.158 61.6782 174.135 61.6782 176.572C61.6782 179.01 63.6546 180.987 66.0925 180.987H130.835C133.273 180.987 135.25 179.01 135.25 176.572C135.25 174.135 133.273 172.158 130.835 172.158Z" fill="#FFEFC2" style="fill:#FFEFC2;fill:color(display-p3 1.0000 0.9374 0.7620);fill-opacity:1;"/>
<path d="M42.5496 145.671H14.5925C10.5293 145.671 7.23535 148.965 7.23535 153.028V180.985C7.23535 185.048 10.5293 188.342 14.5925 188.342H42.5496C46.6129 188.342 49.9068 185.048 49.9068 180.985V153.028C49.9068 148.965 46.6129 145.671 42.5496 145.671Z" fill="#F9BD15" style="fill:#F9BD15;fill:color(display-p3 0.9765 0.7412 0.0824);fill-opacity:1;"/>
<path d="M33.8019 174.002L28.5503 168.75L23.2987 174.002L21.5482 172.251L26.7998 167L21.5482 161.748L23.2987 159.998L28.5503 165.249L33.8019 159.998L35.5524 161.748L30.3008 167L35.5524 172.251L33.8019 174.002Z" fill="white" style="fill:white;fill-opacity:1;"/>
<defs>
<filter id="filter0_d_1157_5142" x="0.821289" y="14.2578" width="217.357" height="55.5" filterUnits="userSpaceOnUse" color-interpolation-filters="sRGB">
<feFlood flood-opacity="0" result="BackgroundImageFix"/>
<feColorMatrix in="SourceAlpha" type="matrix" values="0 0 0 0 0 0 0 0 0 0 0 0 0 0 0 0 0 0 127 0" result="hardAlpha"/>
<feOffset dy="2"/>
<feGaussianBlur stdDeviation="1"/>
<feColorMatrix type="matrix" values="0 0 0 0 0 0 0 0 0 0 0 0 0 0 0 0 0 0 0.08 0"/>
<feBlend mode="normal" in2="BackgroundImageFix" result="effect1_dropShadow_1157_5142"/>
<feBlend mode="normal" in="SourceGraphic" in2="effect1_dropShadow_1157_5142" result="shape"/>
</filter>
<filter id="filter1_d_1157_5142" x="63.8213" y="78.2578" width="217.357" height="55.5" filterUnits="userSpaceOnUse" color-interpolation-filters="sRGB">
<feFlood flood-opacity="0" result="BackgroundImageFix"/>
<feColorMatrix in="SourceAlpha" type="matrix" values="0 0 0 0 0 0 0 0 0 0 0 0 0 0 0 0 0 0 127 0" result="hardAlpha"/>
<feOffset dy="2"/>
<feGaussianBlur stdDeviation="1"/>
<feColorMatrix type="matrix" values="0 0 0 0 0 0 0 0 0 0 0 0 0 0 0 0 0 0 0.08 0"/>
<feBlend mode="normal" in2="BackgroundImageFix" result="effect1_dropShadow_1157_5142"/>
<feBlend mode="normal" in="SourceGraphic" in2="effect1_dropShadow_1157_5142" result="shape"/>
</filter>
<filter id="filter2_d_1157_5142" x="0.821289" y="141.258" width="217.357" height="55.5" filterUnits="userSpaceOnUse" color-interpolation-filters="sRGB">
<feFlood flood-opacity="0" result="BackgroundImageFix"/>
<feColorMatrix in="SourceAlpha" type="matrix" values="0 0 0 0 0 0 0 0 0 0 0 0 0 0 0 0 0 0 127 0" result="hardAlpha"/>
<feOffset dy="2"/>
<feGaussianBlur stdDeviation="1"/>
<feColorMatrix type="matrix" values="0 0 0 0 0 0 0 0 0 0 0 0 0 0 0 0 0 0 0.08 0"/>
<feBlend mode="normal" in2="BackgroundImageFix" result="effect1_dropShadow_1157_5142"/>
<feBlend mode="normal" in="SourceGraphic" in2="effect1_dropShadow_1157_5142" result="shape"/>
</filter>
</defs>
</svg>
