<svg width="225" height="224" viewBox="0 0 225 224" fill="none" xmlns="http://www.w3.org/2000/svg">
<path d="M112.5 224C174.356 224 224.5 173.856 224.5 112C224.5 50.1441 174.356 0 112.5 0C50.6441 0 0.5 50.1441 0.5 112C0.5 173.856 50.6441 224 112.5 224Z" fill="#FFEFC2" style="fill:#FFEFC2;fill:color(display-p3 1.0000 0.9374 0.7620);fill-opacity:1;"/>
<path d="M179.7 224H45.2998V79.1463C51.6345 79.1391 57.7078 76.6196 62.1871 72.1402C66.6664 67.6609 69.186 61.5877 69.1931 55.2529H155.806C155.8 58.391 156.415 61.4992 157.618 64.3978C158.82 67.2963 160.586 69.9277 162.812 72.1395C165.023 74.3662 167.655 76.1321 170.554 77.3348C173.453 78.5375 176.561 79.1532 179.7 79.1463V224Z" fill="white" style="fill:white;fill-opacity:1;"/>
<path d="M112.5 152.32C132.294 152.32 148.34 136.274 148.34 116.48C148.34 96.6858 132.294 80.6396 112.5 80.6396C92.7063 80.6396 76.6602 96.6858 76.6602 116.48C76.6602 136.274 92.7063 152.32 112.5 152.32Z" fill="#F9BD15" style="fill:#F9BD15;fill:color(display-p3 0.9765 0.7412 0.0824);fill-opacity:1;"/>
<path d="M125.351 133.134L114 121.783L102.649 133.134L98.8657 129.35L110.216 118L98.8657 106.649L102.649 102.865L114 114.216L125.351 102.865L129.134 106.649L117.784 118L129.134 129.35L125.351 133.134Z" fill="white" style="fill:white;fill-opacity:1;"/>
<path d="M131.913 161.28H93.0864C90.6122 161.28 88.6064 163.286 88.6064 165.76C88.6064 168.235 90.6122 170.24 93.0864 170.24H131.913C134.387 170.24 136.393 168.235 136.393 165.76C136.393 163.286 134.387 161.28 131.913 161.28Z" fill="#FFE59E" style="fill:#FFE59E;fill:color(display-p3 1.0000 0.8980 0.6196);fill-opacity:1;"/>
<path d="M145.353 179.2H79.6465C77.1723 179.2 75.1665 181.206 75.1665 183.68C75.1665 186.154 77.1723 188.16 79.6465 188.16H145.353C147.827 188.16 149.833 186.154 149.833 183.68C149.833 181.206 147.827 179.2 145.353 179.2Z" fill="#FFE59E" style="fill:#FFE59E;fill:color(display-p3 1.0000 0.8980 0.6196);fill-opacity:1;"/>
</svg>
