<svg width="24" height="21" viewBox="0 0 24 21" fill="none" xmlns="http://www.w3.org/2000/svg">
<path d="M12.0726 20.9981C8.55688 20.9981 5.04115 20.9981 1.52542 20.9981C1.35368 20.9981 1.17972 20.9981 1.00724 20.9805C0.127075 20.8989 -0.226768 20.3101 0.148543 19.5139C0.474256 18.8266 0.82958 18.157 1.17454 17.477C2.80311 14.2754 4.43167 11.0743 6.06024 7.8737C6.11058 7.77593 6.16313 7.67817 6.22161 7.58481C6.63172 6.93204 7.29795 6.84016 7.82279 7.40324C8.19292 7.79725 8.50605 8.23978 8.8362 8.66687C10.5141 10.8442 12.192 13.0226 13.87 15.2019C14.6028 16.1501 15.5259 16.2016 16.3868 15.3489C16.814 14.9255 17.2315 14.491 17.6638 14.0713C18.4433 13.3141 19.3279 13.3597 19.9645 14.2426C21.2422 16.0142 22.488 17.8093 23.7398 19.5985C23.8376 19.7389 23.9126 19.8937 23.9619 20.0572C24.0833 20.4681 23.9115 20.7989 23.4918 20.9084C23.2286 20.971 22.9585 20.9999 22.6879 20.9944C19.1514 21.0003 15.613 21.0015 12.0726 20.9981Z" fill="#F9BD15" style="fill:#F9BD15;fill:color(display-p3 0.9765 0.7412 0.0824);fill-opacity:1;"/>
<path d="M19.9571 3.45505C19.9562 4.1384 19.751 4.80611 19.3675 5.37351C18.984 5.94091 18.4394 6.38245 17.8029 6.64217C17.1664 6.90188 16.4666 6.96806 15.7921 6.83233C15.1177 6.69659 14.499 6.36505 14.0145 5.87973C13.5301 5.39441 13.2016 4.77718 13.0709 4.10627C12.9401 3.43537 13.0129 2.74101 13.28 2.11123C13.5471 1.48145 13.9965 0.944611 14.5712 0.568766C15.1459 0.192922 15.8201 -0.0049988 16.5082 9.59404e-05C17.4245 0.0116592 18.2996 0.380321 18.9447 1.02661C19.5899 1.67289 19.9535 2.54504 19.9571 3.45505Z" fill="#F9BD15" style="fill:#F9BD15;fill:color(display-p3 0.9765 0.7412 0.0824);fill-opacity:1;"/>
</svg>
