<svg width="225" height="224" viewBox="0 0 225 224" fill="none" xmlns="http://www.w3.org/2000/svg">
<path d="M112.5 224C174.356 224 224.5 173.856 224.5 112C224.5 50.1441 174.356 0 112.5 0C50.6441 0 0.5 50.1441 0.5 112C0.5 173.856 50.6441 224 112.5 224Z" fill="#FFEFC2" style="fill:#FFEFC2;fill:color(display-p3 1.0000 0.9374 0.7620);fill-opacity:1;"/>
<path d="M179.7 224H45.3V79.1468C51.6348 79.1396 57.708 76.6201 62.1873 72.1407C66.6667 67.6614 69.1863 61.5881 69.1934 55.2534H155.807C155.8 58.3915 156.416 61.4997 157.618 64.3983C158.821 67.2968 160.586 69.9282 162.812 72.14C165.024 74.3667 167.655 76.1326 170.554 77.3353C173.453 78.538 176.562 79.1537 179.7 79.1468V224Z" fill="white" style="fill:white;fill-opacity:1;"/>
<path d="M112.5 152.32C132.294 152.32 148.34 136.274 148.34 116.48C148.34 96.686 132.294 80.6399 112.5 80.6399C92.706 80.6399 76.6599 96.686 76.6599 116.48C76.6599 136.274 92.706 152.32 112.5 152.32Z" fill="#F9BD15" style="fill:#F9BD15;fill:color(display-p3 0.9765 0.7412 0.0824);fill-opacity:1;"/>
<path d="M101.538 119.51L108.561 126.533L126.12 108.975" stroke="white" style="stroke:white;stroke-opacity:1;" stroke-width="3" stroke-linecap="round" stroke-linejoin="round"/>
<path d="M131.913 161.28H93.0867C90.6125 161.28 88.6067 163.286 88.6067 165.76C88.6067 168.234 90.6125 170.24 93.0867 170.24H131.913C134.388 170.24 136.393 168.234 136.393 165.76C136.393 163.286 134.388 161.28 131.913 161.28Z" fill="#FFE59E" style="fill:#FFE59E;fill:color(display-p3 1.0000 0.8980 0.6196);fill-opacity:1;"/>
<path d="M145.353 179.2H79.6467C77.1725 179.2 75.1667 181.206 75.1667 183.68C75.1667 186.154 77.1725 188.16 79.6467 188.16H145.353C147.828 188.16 149.833 186.154 149.833 183.68C149.833 181.206 147.828 179.2 145.353 179.2Z" fill="#FFE59E" style="fill:#FFE59E;fill:color(display-p3 1.0000 0.8980 0.6196);fill-opacity:1;"/>
</svg>
